# xmcd
# 
# Track frame offsets:
#     183
#     20978
#     38730
#     53603
#     72290
#     88693
#     116090
#     131465
#     149748
#     169108
#     188930
#     212818
#     228853
#     241453
# 
# Disc length: 3386
# 
# Revision: 4
# Processed by: cddbd v1.5.2PL0 Copyright (c) Steve Scherf et al.
# Submitted via: fre:ac v1.0.17
# 
DISCID=cd0d380e
DTITLE=Calvin Russell - A Crack In Time
DYEAR=1990
DGENRE=Blues
TTITLE0=A Crack In Time
TTITLE1=Living At The End Of A Gun
TTITLE2=Big Brother
TTITLE3=I Should Have Been Home
TTITLE4=Nothin'
TTITLE5=My Way
TTITLE6=Behind The 8 Ball
TTITLE7=This Is My Life
TTITLE8=Automated
TTITLE9=Little Stars
TTITLE10=North Austin Slim
TTITLE11=Moments
TTITLE12=One Step Ahead
TTITLE13=Wagon To Stars
EXTD=YEAR: 1990 ID3G:   0
EXTT0=
EXTT1=
EXTT2=
EXTT3=
EXTT4=
EXTT5=
EXTT6=
EXTT7=
EXTT8=
EXTT9=
EXTT10=
EXTT11=
EXTT12=
EXTT13=
PLAYORDER=
